<mxfile host="app.diagrams.net" agent="Mozilla/5.0 (Windows NT 10.0; Win64; x64) AppleWebKit/537.36 (KHTML, like Gecko) Chrome/132.0.0.0 Safari/537.36 OPR/117.0.0.0" version="26.2.8">
  <diagram name="Página-1" id="LuzDRPAQA7D1NSzBbL_d">
    <mxGraphModel dx="833" dy="1622" grid="1" gridSize="10" guides="1" tooltips="1" connect="1" arrows="1" fold="1" page="1" pageScale="1" pageWidth="827" pageHeight="1169" math="0" shadow="0">
      <root>
        <mxCell id="0" />
        <mxCell id="1" parent="0" />
        <mxCell id="ioNJVcg7xG1f4fOeKPw_-1" value="" style="edgeStyle=orthogonalEdgeStyle;rounded=0;orthogonalLoop=1;jettySize=auto;html=1;" edge="1" parent="1" source="ioNJVcg7xG1f4fOeKPw_-2" target="ioNJVcg7xG1f4fOeKPw_-3">
          <mxGeometry relative="1" as="geometry" />
        </mxCell>
        <mxCell id="ioNJVcg7xG1f4fOeKPw_-2" value="Início" style="rounded=1;whiteSpace=wrap;html=1;fontSize=12;glass=0;strokeWidth=1;shadow=0;" vertex="1" parent="1">
          <mxGeometry x="92.5" y="-1140" width="60" height="40" as="geometry" />
        </mxCell>
        <mxCell id="ioNJVcg7xG1f4fOeKPw_-5" value="" style="edgeStyle=orthogonalEdgeStyle;rounded=0;orthogonalLoop=1;jettySize=auto;html=1;" edge="1" parent="1" source="ioNJVcg7xG1f4fOeKPw_-3" target="ioNJVcg7xG1f4fOeKPw_-4">
          <mxGeometry relative="1" as="geometry" />
        </mxCell>
        <mxCell id="ioNJVcg7xG1f4fOeKPw_-3" value="&lt;div&gt;&lt;br&gt;&lt;/div&gt;&lt;div&gt;&lt;br&gt;&lt;/div&gt;Ler nL" style="shape=manualInput;whiteSpace=wrap;html=1;" vertex="1" parent="1">
          <mxGeometry x="77.5" y="-1010" width="90" height="60" as="geometry" />
        </mxCell>
        <mxCell id="ioNJVcg7xG1f4fOeKPw_-7" value="" style="edgeStyle=orthogonalEdgeStyle;rounded=0;orthogonalLoop=1;jettySize=auto;html=1;" edge="1" parent="1" source="ioNJVcg7xG1f4fOeKPw_-4" target="ioNJVcg7xG1f4fOeKPw_-6">
          <mxGeometry relative="1" as="geometry" />
        </mxCell>
        <mxCell id="ioNJVcg7xG1f4fOeKPw_-8" value="Verdadeiro" style="edgeLabel;html=1;align=center;verticalAlign=middle;resizable=0;points=[];" vertex="1" connectable="0" parent="ioNJVcg7xG1f4fOeKPw_-7">
          <mxGeometry x="-0.2397" y="1" relative="1" as="geometry">
            <mxPoint as="offset" />
          </mxGeometry>
        </mxCell>
        <mxCell id="ioNJVcg7xG1f4fOeKPw_-10" value="" style="edgeStyle=orthogonalEdgeStyle;rounded=0;orthogonalLoop=1;jettySize=auto;html=1;" edge="1" parent="1" source="ioNJVcg7xG1f4fOeKPw_-4" target="ioNJVcg7xG1f4fOeKPw_-9">
          <mxGeometry relative="1" as="geometry" />
        </mxCell>
        <mxCell id="ioNJVcg7xG1f4fOeKPw_-14" value="Text" style="edgeLabel;html=1;align=center;verticalAlign=middle;resizable=0;points=[];" vertex="1" connectable="0" parent="ioNJVcg7xG1f4fOeKPw_-10">
          <mxGeometry x="-0.5375" y="1" relative="1" as="geometry">
            <mxPoint as="offset" />
          </mxGeometry>
        </mxCell>
        <mxCell id="ioNJVcg7xG1f4fOeKPw_-16" value="Falso" style="edgeLabel;html=1;align=center;verticalAlign=middle;resizable=0;points=[];" vertex="1" connectable="0" parent="ioNJVcg7xG1f4fOeKPw_-10">
          <mxGeometry x="-0.5375" relative="1" as="geometry">
            <mxPoint as="offset" />
          </mxGeometry>
        </mxCell>
        <mxCell id="ioNJVcg7xG1f4fOeKPw_-4" value="nL &amp;lt; 3" style="rhombus;whiteSpace=wrap;html=1;" vertex="1" parent="1">
          <mxGeometry x="252.5" y="-1020" width="80" height="80" as="geometry" />
        </mxCell>
        <mxCell id="ioNJVcg7xG1f4fOeKPw_-38" style="edgeStyle=orthogonalEdgeStyle;rounded=0;orthogonalLoop=1;jettySize=auto;html=1;entryX=0;entryY=0.5;entryDx=0;entryDy=0;" edge="1" parent="1" source="ioNJVcg7xG1f4fOeKPw_-6" target="ioNJVcg7xG1f4fOeKPw_-37">
          <mxGeometry relative="1" as="geometry">
            <Array as="points">
              <mxPoint x="290" y="-690" />
            </Array>
          </mxGeometry>
        </mxCell>
        <mxCell id="ioNJVcg7xG1f4fOeKPw_-6" value="&quot;NÃO É UM POLÍGONO&quot;" style="shape=display;whiteSpace=wrap;html=1;" vertex="1" parent="1">
          <mxGeometry x="236" y="-880" width="114" height="40" as="geometry" />
        </mxCell>
        <mxCell id="ioNJVcg7xG1f4fOeKPw_-12" value="" style="edgeStyle=orthogonalEdgeStyle;rounded=0;orthogonalLoop=1;jettySize=auto;html=1;" edge="1" parent="1" source="ioNJVcg7xG1f4fOeKPw_-9" target="ioNJVcg7xG1f4fOeKPw_-11">
          <mxGeometry relative="1" as="geometry" />
        </mxCell>
        <mxCell id="ioNJVcg7xG1f4fOeKPw_-13" value="Verdadeiro" style="edgeLabel;html=1;align=center;verticalAlign=middle;resizable=0;points=[];" vertex="1" connectable="0" parent="ioNJVcg7xG1f4fOeKPw_-12">
          <mxGeometry x="-0.2" y="1" relative="1" as="geometry">
            <mxPoint as="offset" />
          </mxGeometry>
        </mxCell>
        <mxCell id="ioNJVcg7xG1f4fOeKPw_-18" value="" style="edgeStyle=orthogonalEdgeStyle;rounded=0;orthogonalLoop=1;jettySize=auto;html=1;" edge="1" parent="1" source="ioNJVcg7xG1f4fOeKPw_-9" target="ioNJVcg7xG1f4fOeKPw_-17">
          <mxGeometry relative="1" as="geometry" />
        </mxCell>
        <mxCell id="ioNJVcg7xG1f4fOeKPw_-19" value="Falso" style="edgeLabel;html=1;align=center;verticalAlign=middle;resizable=0;points=[];" vertex="1" connectable="0" parent="ioNJVcg7xG1f4fOeKPw_-18">
          <mxGeometry x="-0.2125" relative="1" as="geometry">
            <mxPoint as="offset" />
          </mxGeometry>
        </mxCell>
        <mxCell id="ioNJVcg7xG1f4fOeKPw_-9" value="nL = 3" style="rhombus;whiteSpace=wrap;html=1;" vertex="1" parent="1">
          <mxGeometry x="412.5" y="-1020" width="80" height="80" as="geometry" />
        </mxCell>
        <mxCell id="ioNJVcg7xG1f4fOeKPw_-39" style="edgeStyle=orthogonalEdgeStyle;rounded=0;orthogonalLoop=1;jettySize=auto;html=1;entryX=0;entryY=0;entryDx=0;entryDy=0;" edge="1" parent="1" source="ioNJVcg7xG1f4fOeKPw_-11" target="ioNJVcg7xG1f4fOeKPw_-37">
          <mxGeometry relative="1" as="geometry">
            <Array as="points">
              <mxPoint x="460" y="-706" />
            </Array>
          </mxGeometry>
        </mxCell>
        <mxCell id="ioNJVcg7xG1f4fOeKPw_-11" value="&quot;TRIÂNGULO&quot;" style="shape=display;whiteSpace=wrap;html=1;" vertex="1" parent="1">
          <mxGeometry x="395.5" y="-880" width="114" height="40" as="geometry" />
        </mxCell>
        <mxCell id="ioNJVcg7xG1f4fOeKPw_-21" value="" style="edgeStyle=orthogonalEdgeStyle;rounded=0;orthogonalLoop=1;jettySize=auto;html=1;" edge="1" parent="1" source="ioNJVcg7xG1f4fOeKPw_-17" target="ioNJVcg7xG1f4fOeKPw_-20">
          <mxGeometry relative="1" as="geometry" />
        </mxCell>
        <mxCell id="ioNJVcg7xG1f4fOeKPw_-25" value="" style="edgeStyle=orthogonalEdgeStyle;rounded=0;orthogonalLoop=1;jettySize=auto;html=1;" edge="1" parent="1" source="ioNJVcg7xG1f4fOeKPw_-17" target="ioNJVcg7xG1f4fOeKPw_-24">
          <mxGeometry relative="1" as="geometry" />
        </mxCell>
        <mxCell id="ioNJVcg7xG1f4fOeKPw_-30" value="Falso" style="edgeLabel;html=1;align=center;verticalAlign=middle;resizable=0;points=[];" vertex="1" connectable="0" parent="ioNJVcg7xG1f4fOeKPw_-25">
          <mxGeometry x="-0.0625" y="2" relative="1" as="geometry">
            <mxPoint as="offset" />
          </mxGeometry>
        </mxCell>
        <mxCell id="ioNJVcg7xG1f4fOeKPw_-17" value="nL = 4" style="rhombus;whiteSpace=wrap;html=1;" vertex="1" parent="1">
          <mxGeometry x="572.5" y="-1020" width="80" height="80" as="geometry" />
        </mxCell>
        <mxCell id="ioNJVcg7xG1f4fOeKPw_-22" value="" style="edgeStyle=orthogonalEdgeStyle;rounded=0;orthogonalLoop=1;jettySize=auto;html=1;" edge="1" parent="1" source="ioNJVcg7xG1f4fOeKPw_-20" target="ioNJVcg7xG1f4fOeKPw_-17">
          <mxGeometry relative="1" as="geometry" />
        </mxCell>
        <mxCell id="ioNJVcg7xG1f4fOeKPw_-23" value="Verdadeiro" style="edgeLabel;html=1;align=center;verticalAlign=middle;resizable=0;points=[];" vertex="1" connectable="0" parent="ioNJVcg7xG1f4fOeKPw_-22">
          <mxGeometry x="0.1" y="3" relative="1" as="geometry">
            <mxPoint x="1" as="offset" />
          </mxGeometry>
        </mxCell>
        <mxCell id="ioNJVcg7xG1f4fOeKPw_-40" style="edgeStyle=orthogonalEdgeStyle;rounded=0;orthogonalLoop=1;jettySize=auto;html=1;entryX=0.5;entryY=0;entryDx=0;entryDy=0;" edge="1" parent="1" source="ioNJVcg7xG1f4fOeKPw_-20" target="ioNJVcg7xG1f4fOeKPw_-37">
          <mxGeometry relative="1" as="geometry" />
        </mxCell>
        <mxCell id="ioNJVcg7xG1f4fOeKPw_-20" value="&quot;QUADRADO&quot;" style="shape=display;whiteSpace=wrap;html=1;" vertex="1" parent="1">
          <mxGeometry x="555.5" y="-880" width="114" height="40" as="geometry" />
        </mxCell>
        <mxCell id="ioNJVcg7xG1f4fOeKPw_-28" value="" style="edgeStyle=orthogonalEdgeStyle;rounded=0;orthogonalLoop=1;jettySize=auto;html=1;" edge="1" parent="1" source="ioNJVcg7xG1f4fOeKPw_-24" target="ioNJVcg7xG1f4fOeKPw_-27">
          <mxGeometry relative="1" as="geometry" />
        </mxCell>
        <mxCell id="ioNJVcg7xG1f4fOeKPw_-29" value="Verdadeiro" style="edgeLabel;html=1;align=center;verticalAlign=middle;resizable=0;points=[];" vertex="1" connectable="0" parent="ioNJVcg7xG1f4fOeKPw_-28">
          <mxGeometry x="-0.4" y="2" relative="1" as="geometry">
            <mxPoint as="offset" />
          </mxGeometry>
        </mxCell>
        <mxCell id="ioNJVcg7xG1f4fOeKPw_-32" value="" style="edgeStyle=orthogonalEdgeStyle;rounded=0;orthogonalLoop=1;jettySize=auto;html=1;" edge="1" parent="1" source="ioNJVcg7xG1f4fOeKPw_-24" target="ioNJVcg7xG1f4fOeKPw_-31">
          <mxGeometry relative="1" as="geometry" />
        </mxCell>
        <mxCell id="ioNJVcg7xG1f4fOeKPw_-36" value="Falso" style="edgeLabel;html=1;align=center;verticalAlign=middle;resizable=0;points=[];" vertex="1" connectable="0" parent="ioNJVcg7xG1f4fOeKPw_-32">
          <mxGeometry x="-0.3375" relative="1" as="geometry">
            <mxPoint as="offset" />
          </mxGeometry>
        </mxCell>
        <mxCell id="ioNJVcg7xG1f4fOeKPw_-24" value="nL = 5" style="rhombus;whiteSpace=wrap;html=1;" vertex="1" parent="1">
          <mxGeometry x="732.5" y="-1020" width="80" height="80" as="geometry" />
        </mxCell>
        <mxCell id="ioNJVcg7xG1f4fOeKPw_-41" style="edgeStyle=orthogonalEdgeStyle;rounded=0;orthogonalLoop=1;jettySize=auto;html=1;entryX=1;entryY=0;entryDx=0;entryDy=0;" edge="1" parent="1" source="ioNJVcg7xG1f4fOeKPw_-27" target="ioNJVcg7xG1f4fOeKPw_-37">
          <mxGeometry relative="1" as="geometry">
            <Array as="points">
              <mxPoint x="773" y="-706" />
            </Array>
          </mxGeometry>
        </mxCell>
        <mxCell id="ioNJVcg7xG1f4fOeKPw_-27" value="&quot;PENTAGONO&quot;" style="shape=display;whiteSpace=wrap;html=1;" vertex="1" parent="1">
          <mxGeometry x="715.5" y="-880" width="114" height="40" as="geometry" />
        </mxCell>
        <mxCell id="ioNJVcg7xG1f4fOeKPw_-31" value="nL &amp;gt; 5" style="rhombus;whiteSpace=wrap;html=1;" vertex="1" parent="1">
          <mxGeometry x="892.5" y="-1020" width="80" height="80" as="geometry" />
        </mxCell>
        <mxCell id="ioNJVcg7xG1f4fOeKPw_-33" value="" style="edgeStyle=orthogonalEdgeStyle;rounded=0;orthogonalLoop=1;jettySize=auto;html=1;" edge="1" parent="1" target="ioNJVcg7xG1f4fOeKPw_-35">
          <mxGeometry relative="1" as="geometry">
            <mxPoint x="933" y="-940" as="sourcePoint" />
          </mxGeometry>
        </mxCell>
        <mxCell id="ioNJVcg7xG1f4fOeKPw_-34" value="Verdadeiro" style="edgeLabel;html=1;align=center;verticalAlign=middle;resizable=0;points=[];" vertex="1" connectable="0" parent="ioNJVcg7xG1f4fOeKPw_-33">
          <mxGeometry x="-0.4" y="2" relative="1" as="geometry">
            <mxPoint as="offset" />
          </mxGeometry>
        </mxCell>
        <mxCell id="ioNJVcg7xG1f4fOeKPw_-42" style="edgeStyle=orthogonalEdgeStyle;rounded=0;orthogonalLoop=1;jettySize=auto;html=1;entryX=1;entryY=0.5;entryDx=0;entryDy=0;" edge="1" parent="1" source="ioNJVcg7xG1f4fOeKPw_-35" target="ioNJVcg7xG1f4fOeKPw_-37">
          <mxGeometry relative="1" as="geometry">
            <Array as="points">
              <mxPoint x="933" y="-690" />
            </Array>
          </mxGeometry>
        </mxCell>
        <mxCell id="ioNJVcg7xG1f4fOeKPw_-35" value="&quot;&lt;span style=&quot;background-color: transparent;&quot;&gt;POLÍGONO NÃO&lt;/span&gt;&lt;div&gt;IDENTIFICADO&quot;&lt;/div&gt;" style="shape=display;whiteSpace=wrap;html=1;" vertex="1" parent="1">
          <mxGeometry x="875.5" y="-880" width="114" height="40" as="geometry" />
        </mxCell>
        <mxCell id="ioNJVcg7xG1f4fOeKPw_-44" value="" style="edgeStyle=orthogonalEdgeStyle;rounded=0;orthogonalLoop=1;jettySize=auto;html=1;" edge="1" parent="1" source="ioNJVcg7xG1f4fOeKPw_-37" target="ioNJVcg7xG1f4fOeKPw_-43">
          <mxGeometry relative="1" as="geometry" />
        </mxCell>
        <mxCell id="ioNJVcg7xG1f4fOeKPw_-37" value="" style="ellipse;whiteSpace=wrap;html=1;aspect=fixed;" vertex="1" parent="1">
          <mxGeometry x="590" y="-713" width="46" height="46" as="geometry" />
        </mxCell>
        <mxCell id="ioNJVcg7xG1f4fOeKPw_-43" value="Fim" style="rounded=1;whiteSpace=wrap;html=1;fontSize=12;glass=0;strokeWidth=1;shadow=0;" vertex="1" parent="1">
          <mxGeometry x="582.5" y="-584" width="60" height="40" as="geometry" />
        </mxCell>
      </root>
    </mxGraphModel>
  </diagram>
</mxfile>
